<svg xmlns="http://www.w3.org/2000/svg" viewBox="0 0 920 256" role="img" aria-labelledby="title desc">
  <title id="title">Lambda API Decorators</title>
  <desc id="desc">Lambda API Decorators horizontal logo.</desc>
  <g transform="translate(0 0)">
    <g fill="none" stroke-linecap="round" stroke-linejoin="round">
      <path d="M58 30H42c-12 0-20 8-20 20v156c0 12 8 20 20 20h16M198 30h16c12 0 20 8 20 20v156c0 12-8 20-20 20h-16" stroke="#14233D" stroke-width="18"/>
      <path d="M78 196l45-104M105 52h18l55 144" stroke="#14233D" stroke-width="20"/>
      <path d="M143 105h19l18-19h18M160 151h9l18 19h11" stroke="#FF8A00" stroke-width="12"/>
      <path d="M151 128h47" stroke="#14B8D4" stroke-width="12"/>
      <circle cx="207" cy="86" r="11" stroke="#FF8A00" stroke-width="9"/><circle cx="207" cy="128" r="11" stroke="#14B8D4" stroke-width="9"/><circle cx="207" cy="170" r="11" stroke="#FF8A00" stroke-width="9"/>
    </g>
  </g>
  <g fill="#14233D" font-family="Inter, ui-sans-serif, system-ui, sans-serif">
    <text x="292" y="119" font-size="65" font-weight="750" letter-spacing="-2">Lambda</text>
    <text x="292" y="178" font-size="53" font-weight="450" letter-spacing="-.8">API Decorators</text>
  </g>
</svg>
