<svg xmlns="http://www.w3.org/2000/svg" viewBox="0 0 1200 630" role="img" aria-labelledby="title desc">
  <title id="title">Lambda API Decorators</title><desc id="desc">Social preview for Lambda API Decorators.</desc>
  <rect width="1200" height="630" fill="#F7F9FC"/>
  <path d="M0 604h1200v26H0z" fill="#14233D"/>
  <g transform="translate(80 125) scale(1.45)">
    <g fill="none" stroke-linecap="round" stroke-linejoin="round">
      <path d="M58 30H42c-12 0-20 8-20 20v156c0 12 8 20 20 20h16M198 30h16c12 0 20 8 20 20v156c0 12-8 20-20 20h-16" stroke="#14233D" stroke-width="18"/>
      <path d="M78 196l45-104M105 52h18l55 144" stroke="#14233D" stroke-width="20"/>
      <path d="M143 105h19l18-19h18M160 151h9l18 19h11" stroke="#FF8A00" stroke-width="12"/>
      <path d="M151 128h47" stroke="#14B8D4" stroke-width="12"/>
      <circle cx="207" cy="86" r="11" stroke="#FF8A00" stroke-width="9"/><circle cx="207" cy="128" r="11" stroke="#14B8D4" stroke-width="9"/><circle cx="207" cy="170" r="11" stroke="#FF8A00" stroke-width="9"/>
    </g>
  </g>
  <g font-family="Inter, ui-sans-serif, system-ui, sans-serif" fill="#14233D">
    <text x="500" y="252" font-size="72" font-weight="750" letter-spacing="-2">Lambda</text>
    <text x="500" y="324" font-size="58" font-weight="450">API Decorators</text>
    <text x="502" y="390" font-size="26" font-weight="450" fill="#40516A">Python decorators → AWS CDK infrastructure</text>
  </g>
  <circle cx="505" cy="456" r="8" fill="#FF8A00"/><path d="M526 456h84" stroke="#FF8A00" stroke-width="8" stroke-linecap="round"/>
  <circle cx="632" cy="456" r="8" fill="#14B8D4"/><path d="M653 456h84" stroke="#14B8D4" stroke-width="8" stroke-linecap="round"/>
  <circle cx="759" cy="456" r="8" fill="#FF8A00"/>
</svg>
